<svg width="35" height="35" viewBox="0 0 35 35" fill="none" xmlns="http://www.w3.org/2000/svg">
<g id="Live Link">
<path id="Vector" d="M17.0077 7.16406L19.7421 4.42968C20.4531 3.7187 21.2971 3.15471 22.2261 2.76993C23.155 2.38515 24.1507 2.1871 25.1562 2.1871C26.1616 2.1871 27.1573 2.38515 28.0862 2.76993C29.0152 3.15471 29.8592 3.7187 30.5702 4.42968C31.2812 5.14067 31.8452 5.98473 32.23 6.91367C32.6147 7.84262 32.8128 8.83826 32.8128 9.84374C32.8128 10.8492 32.6147 11.8449 32.23 12.7738C31.8452 13.7028 31.2812 14.5468 30.5702 15.2578L25.1015 20.7266C24.3905 21.4376 23.5465 22.0016 22.6175 22.3864C21.6886 22.7712 20.6929 22.9693 19.6874 22.9693C18.6819 22.9693 17.6863 22.7712 16.7573 22.3864C15.8284 22.0016 14.9843 21.4376 14.2733 20.7266C13.9837 20.4154 13.826 20.004 13.8333 19.5789C13.8407 19.1539 14.0125 18.7482 14.3127 18.4472C14.6137 18.147 15.0194 17.9751 15.4445 17.9678C15.8695 17.9604 16.2809 18.1182 16.5921 18.4078C16.9981 18.8151 17.4805 19.1383 18.0117 19.3588C18.5428 19.5793 19.1123 19.6928 19.6874 19.6928C20.2625 19.6928 20.832 19.5793 21.3631 19.3588C21.8943 19.1383 22.3767 18.8151 22.7827 18.4078L28.2515 12.9391C29.0325 12.1101 29.4598 11.0095 29.4428 9.87075C29.4259 8.73197 28.9659 7.6446 28.1606 6.83927C27.3553 6.03395 26.2679 5.57403 25.1292 5.55707C23.9904 5.54011 22.8898 5.96744 22.0608 6.74843L19.3265 9.48281C19.0153 9.77245 18.6039 9.93018 18.1788 9.92283C17.7538 9.91549 17.3481 9.74365 17.0471 9.44343C16.7469 9.14242 16.575 8.73675 16.5677 8.31169C16.5603 7.88662 16.7181 7.47525 17.0077 7.16406ZM6.74834 28.2516C7.15437 28.6588 7.63678 28.982 8.16794 29.2025C8.6991 29.423 9.26855 29.5365 9.84365 29.5365C10.4188 29.5365 10.9882 29.423 11.5194 29.2025C12.0505 28.982 12.5329 28.6588 12.939 28.2516L15.6733 25.5172C15.9845 25.2275 16.3959 25.0698 16.821 25.0772C17.246 25.0845 17.6517 25.2563 17.9527 25.5566C18.2529 25.8576 18.4248 26.2632 18.4321 26.6883C18.4395 27.1134 18.2817 27.5247 17.9921 27.8359L15.2577 30.5703C14.5467 31.2813 13.7027 31.8453 12.7737 32.2301C11.8448 32.6148 10.8491 32.8129 9.84365 32.8129C7.81298 32.8129 5.86549 32.0062 4.42959 30.5703C2.99369 29.1344 2.18701 27.1869 2.18701 25.1562C2.18701 23.1256 2.99369 21.1781 4.42959 19.7422L9.89834 14.2734C10.6093 13.5624 11.4534 12.9984 12.3823 12.6136C13.3113 12.2288 14.3069 12.0307 15.3124 12.0307C16.3179 12.0307 17.3136 12.2288 18.2425 12.6136C19.1715 12.9984 20.0155 13.5624 20.7265 14.2734C21.0161 14.5846 21.1738 14.996 21.1665 15.4211C21.1591 15.8461 20.9873 16.2518 20.6871 16.5528C20.3861 16.853 19.9804 17.0249 19.5553 17.0322C19.1303 17.0396 18.7189 16.8818 18.4077 16.5922C18.0017 16.1849 17.5193 15.8617 16.9881 15.6412C16.457 15.4207 15.8875 15.3072 15.3124 15.3072C14.7373 15.3072 14.1678 15.4207 13.6367 15.6412C13.1055 15.8617 12.6231 16.1849 12.2171 16.5922L6.74834 22.0609C6.34105 22.467 6.01789 22.9494 5.79739 23.4805C5.57689 24.0117 5.46339 24.5811 5.46339 25.1562C5.46339 25.7313 5.57689 26.3008 5.79739 26.832C6.01789 27.3631 6.34105 27.8455 6.74834 28.2516Z" fill="#111111"/>
</g>
</svg>
